<?xml version="1.0" encoding="UTF-8"?>
<svg width="221px" height="103px" viewBox="0 0 221 103" version="1.1" xmlns="http://www.w3.org/2000/svg" xmlns:xlink="http://www.w3.org/1999/xlink">
    <!-- Generator: Sketch 52.6 (67491) - http://www.bohemiancoding.com/sketch -->
    <title>Artboard</title>
    <desc>Created with Sketch.</desc>
    <g id="Artboard" stroke="none" stroke-width="1" fill="none" fill-rule="evenodd">
        <g id="Group-Copy-5" transform="translate(12.000000, 14.000000)">
            <path d="M83.196,7.528 C83.196,2.376 85.726,-0.568 90.648,-0.568 C95.57,-0.568 98.1,2.376 98.1,7.528 L98.1,8.54 L93.316,8.54 L93.316,7.206 C93.316,4.906 92.396,4.032 90.786,4.032 C89.176,4.032 88.256,4.906 88.256,7.206 C88.256,13.83 98.146,15.072 98.146,24.272 C98.146,29.424 95.57,32.368 90.602,32.368 C85.634,32.368 83.058,29.424 83.058,24.272 L83.058,22.294 L87.842,22.294 L87.842,24.594 C87.842,26.894 88.854,27.722 90.464,27.722 C92.074,27.722 93.086,26.894 93.086,24.594 C93.086,17.97 83.196,16.728 83.196,7.528 Z M102.372,4.4 L102.372,-0.2 L118.012,-0.2 L118.012,4.4 L112.722,4.4 L112.722,32 L107.662,32 L107.662,4.4 L102.372,4.4 Z M122.79,-0.2 L127.85,-0.2 L127.85,24.64 C127.85,26.94 128.862,27.768 130.472,27.768 C132.082,27.768 133.094,26.94 133.094,24.64 L133.094,-0.2 L137.878,-0.2 L137.878,24.318 C137.878,29.47 135.302,32.414 130.334,32.414 C125.366,32.414 122.79,29.47 122.79,24.318 L122.79,-0.2 Z M154.018,19.994 L158.802,19.994 L158.802,24.272 C158.802,29.424 156.226,32.368 151.258,32.368 C146.29,32.368 143.714,29.424 143.714,24.272 L143.714,7.528 C143.714,2.376 146.29,-0.568 151.258,-0.568 C156.226,-0.568 158.802,2.376 158.802,7.528 L158.802,10.656 L154.018,10.656 L154.018,7.206 C154.018,4.906 153.006,4.032 151.396,4.032 C149.786,4.032 148.774,4.906 148.774,7.206 L148.774,24.594 C148.774,26.894 149.786,27.722 151.396,27.722 C153.006,27.722 154.018,26.894 154.018,24.594 L154.018,19.994 Z M176.23,32 L171.308,19.166 L169.744,22.11 L169.744,32 L164.684,32 L164.684,-0.2 L169.744,-0.2 L169.744,13.83 L176.368,-0.2 L181.428,-0.2 L174.39,14.152 L181.428,32 L176.23,32 Z M83.84,72 L83.84,39.8 L91.844,39.8 C96.904,39.8 99.388,42.606 99.388,47.758 L99.388,64.042 C99.388,69.194 96.904,72 91.844,72 L83.84,72 Z M91.752,44.4 L88.9,44.4 L88.9,67.4 L91.752,67.4 C93.362,67.4 94.328,66.572 94.328,64.272 L94.328,47.528 C94.328,45.228 93.362,44.4 91.752,44.4 Z M105.408,72 L105.408,39.8 L110.468,39.8 L110.468,72 L105.408,72 Z M124.538,58.66 L124.538,54.06 L131.622,54.06 L131.622,64.272 C131.622,69.424 129.046,72.368 124.078,72.368 C119.11,72.368 116.534,69.424 116.534,64.272 L116.534,47.528 C116.534,42.376 119.11,39.432 124.078,39.432 C129.046,39.432 131.622,42.376 131.622,47.528 L131.622,50.656 L126.838,50.656 L126.838,47.206 C126.838,44.906 125.826,44.032 124.216,44.032 C122.606,44.032 121.594,44.906 121.594,47.206 L121.594,64.594 C121.594,66.894 122.606,67.722 124.216,67.722 C125.826,67.722 126.838,66.894 126.838,64.594 L126.838,58.66 L124.538,58.66 Z M137.688,72 L137.688,39.8 L142.748,39.8 L142.748,72 L137.688,72 Z M147.756,44.4 L147.756,39.8 L163.396,39.8 L163.396,44.4 L158.106,44.4 L158.106,72 L153.046,72 L153.046,44.4 L147.756,44.4 Z M177.88,39.8 L183.032,72 L177.926,72 L177.052,66.158 L170.842,66.158 L169.968,72 L165.322,72 L170.474,39.8 L177.88,39.8 Z M173.924,45.504 L171.486,61.788 L176.362,61.788 L173.924,45.504 Z M188.178,72 L188.178,39.8 L193.238,39.8 L193.238,67.4 L201.564,67.4 L201.564,72 L188.178,72 Z" id="STUCK-DIGITAL" fill="#333333"></path>
            <path d="M27.548055,42.9607601 C27.386243,42.9236986 27.386243,42.9236986 27.2226432,42.8862606 C22.0231487,41.6962859 19.7110003,40.9562412 16.9672459,39.0861836 C12.7585956,36.2176986 10.5,31.7593904 10.5,26 C10.5,17.5316838 16.0455125,11.2283292 24.0866901,9.70481663 C31.3315692,8.33217388 39.4485328,11.0124873 45.8201534,16.988661 C48.4385133,19.4445155 48.5702499,23.5579789 46.1143954,26.1763387 C43.6585409,28.7946985 39.5450775,28.9264351 36.9267177,26.4705806 C33.4674032,23.2259643 29.489566,21.9124374 26.5066688,22.4775886 C24.4495172,22.8673445 23.5,23.9466214 23.5,26 C23.5,28.4584915 24.0294319,28.8193358 30.1228834,30.2139046 C30.2864843,30.2513427 30.2864843,30.2513427 30.451945,30.2892399 C35.6494863,31.4803431 38.1959731,32.3256353 41.0315204,34.3538392 C45.2610884,37.3791552 47.5,42.0102373 47.5,48 C47.5,48.2417971 47.4865079,48.4834059 47.4595866,48.7236997 C46.8145949,54.4807551 43.743441,58.9130106 38.9575362,61.5713304 C35.2931134,63.6067256 30.856371,64.5 26,64.5 C21.6527176,64.5 15.4162042,63.744059 9.85738842,61.9289355 C0.0224710695,58.7175339 -6.5,52.6113908 -6.5,43 L-6.5,1 C-6.5,-2.58985087 -3.58985087,-5.5 7.10542736e-15,-5.5 L36,-5.5 C44.4298597,-5.5 53.6432323,-1.77824148 60.7880977,4.8411803 C69.0320172,12.4788302 74.0497055,23.3551443 74.6805697,36.5647944 C74.6859865,36.6782183 74.6884303,36.7917646 74.6878983,36.9053164 C74.5921995,57.3337688 66.3595517,70.0119004 50.8351962,75.8189221 C44.6348003,78.1382347 37.4267323,79.3391118 28.6275728,79.7686894 C22.1852196,80.0832069 16.9136968,80.018974 4.54279301,79.6381519 C2.25455527,79.5677115 1.13810983,79.5342058 -0.1809014,79.4974822 C-3.76936172,79.3975731 -6.59739126,76.4075589 -6.49748218,72.8190986 C-6.3975731,69.2306383 -3.40755892,66.4026087 0.1809014,66.5025178 C1.51664065,66.5397072 2.64211277,66.5734838 4.94279155,66.6443072 C28.193049,67.360036 37.5666805,66.9024125 46.2806403,63.6428792 C56.5409486,59.8049207 61.5786734,52.092202 61.6870193,37.0166056 C61.1856321,27.2728242 57.6548672,19.6600256 51.9530589,14.3775364 C47.1774489,9.95313164 41.1046164,7.5 36,7.5 L6.5,7.5 L6.5,43 C6.5,45.7556305 8.79893206,47.9078222 13.8926116,49.5710645 C16.1820626,50.3186404 18.7762502,50.8476512 21.4540289,51.1722304 C23.3085929,51.3970261 25.0334065,51.5 26,51.5 C31.3867091,51.5 34.0264547,50.147586 34.4949782,47.5858929 C34.422661,44.849265 33.5031806,44.3254764 27.548055,42.9607601 Z" id="Path" fill="#313131" fill-rule="nonzero"></path>
        </g>
    </g>
</svg>